<svg viewBox="0 0 87 128" fill="none" xmlns="http://www.w3.org/2000/svg">
<path d="M21.9428 128C33.7588 128 43.3485 118.442 43.3485 106.666V85.333H21.9428C10.1269 85.333 0.537109 94.8904 0.537109 106.666C0.537109 118.442 10.1269 128 21.9428 128Z" fill="#0ACF83"/>
<path d="M0.537109 63.9999C0.537109 52.2239 10.1269 42.6665 21.9428 42.6665H43.3485V85.3333H21.9428C10.1269 85.3333 0.537109 75.7759 0.537109 63.9999Z" fill="#A259FF"/>
<path d="M0.537109 21.3334C0.537109 9.55736 10.1269 0 21.9428 0H43.3485V42.6668H21.9428C10.1269 42.6668 0.537109 33.1094 0.537109 21.3334Z" fill="#F24E1E"/>
<path d="M43.3486 0H64.7543C76.5703 0 86.16 9.55736 86.16 21.3334C86.16 33.1094 76.5703 42.6668 64.7543 42.6668H43.3486V0Z" fill="#FF7262"/>
<path d="M86.16 63.9999C86.16 75.7759 76.5703 85.3333 64.7543 85.3333C52.9384 85.3333 43.3486 75.7759 43.3486 63.9999C43.3486 52.2239 52.9384 42.6665 64.7543 42.6665C76.5703 42.6665 86.16 52.2239 86.16 63.9999Z" fill="#1ABCFE"/>
</svg>
