<svg viewBox="0 0 129 128" fill="none" xmlns="http://www.w3.org/2000/svg">
<path d="M126.65 58.3041L126.644 58.3015L70.6497 2.27034C67.6288 -0.757649 62.3424 -0.755044 59.332 2.26774L3.32682 58.3041C1.82161 59.8181 0.988281 61.8272 0.988281 63.9613C0.988281 66.0981 1.82161 68.1095 3.33203 69.6208L59.3267 125.652C60.8372 127.166 62.8476 128 64.9882 128C67.1288 128 69.1392 127.166 70.6444 125.655L126.644 69.6208C128.155 68.1095 128.988 66.0981 128.988 63.9613C128.988 61.8272 128.155 59.8181 126.65 58.3041Z" fill="#EF473B"/>
<path opacity="0.1" d="M127.287 67.6797L70.7034 124.297C69.1825 125.824 67.151 126.667 64.9882 126.667C62.8254 126.667 60.7939 125.824 59.2678 124.295L2.68978 67.6797C2.02864 67.0179 1.52344 66.2484 1.13184 65.4277C1.42285 67.0062 2.1735 68.4619 3.33203 69.6211L59.3268 125.652C60.8372 127.166 62.8476 128 64.9882 128C67.1288 128 69.1392 127.166 70.6444 125.655L126.644 69.6211C127.803 68.4619 128.554 67.0062 128.845 65.4277C128.453 66.2484 127.948 67.0179 127.287 67.6797Z" fill="#010101"/>
<path d="M91.6549 53.3333C89.6555 53.3333 87.8043 53.9202 86.2031 54.8815L74.1067 42.7851C75.0677 41.1842 75.6549 39.333 75.6549 37.3333C75.6549 31.4505 70.8685 26.6667 64.9883 26.6667C63.0156 26.6667 61.1894 27.2415 59.6025 28.179L46.5159 15.0908L42.7461 18.8626L55.8323 31.9505C54.8961 33.5364 54.3216 35.3616 54.3216 37.3333C54.3216 42.2897 57.735 46.4287 62.3216 47.621V80.3788C57.735 81.5712 54.3216 85.7102 54.3216 90.6666C54.3216 96.5494 59.1081 101.333 64.9883 101.333C70.8685 101.333 75.6549 96.5494 75.6549 90.6666C75.6549 85.7102 72.2415 81.5712 67.6549 80.3788V47.621C68.5976 47.3759 69.4817 47.0032 70.305 46.525L82.4632 58.6832C81.5501 60.2548 80.9882 62.0549 80.9882 63.9999C80.9882 69.8827 85.7747 74.6666 91.6549 74.6666C97.5351 74.6666 102.322 69.8827 102.322 63.9999C102.322 58.1171 97.5351 53.3333 91.6549 53.3333Z" fill="white"/>
<path opacity="0.2" d="M3.32682 59.6375L59.332 3.60107C62.3424 0.578287 67.6288 0.575683 70.6497 3.60367L126.644 59.6348L126.65 59.6375C127.995 60.991 128.767 62.7481 128.923 64.6283C128.942 64.405 128.988 64.1879 128.988 63.9613C128.988 61.8272 128.155 59.8181 126.65 58.3041L126.644 58.3015L70.6497 2.27034C67.6288 -0.757649 62.3424 -0.755044 59.332 2.26774L3.32682 58.3041C1.82161 59.8181 0.988281 61.8272 0.988281 63.9613C0.988281 64.1876 1.03483 64.4047 1.05339 64.6277C1.20996 62.7475 1.98144 60.9906 3.32682 59.6375Z" fill="white"/>
<path d="M99.9153 57.3356C101.396 59.1673 102.322 61.4661 102.322 64.0003C102.322 69.8831 97.5351 74.6669 91.6549 74.6669C85.7747 74.6669 80.9882 69.8831 80.9882 64.0003C80.9882 62.0553 81.5501 60.2552 82.4632 58.6836L70.305 46.5254C69.4818 47.0036 68.5976 47.3763 67.6549 47.6214V80.3792C72.2415 81.5716 75.6549 85.7105 75.6549 90.6669C75.6549 96.5497 70.8685 101.334 64.9883 101.334C62.2604 101.334 59.7946 100.274 57.9062 98.5829L77.8092 118.486L119.425 76.845L99.9153 57.3356ZM74.1067 42.7855L86.2031 54.8818C87.8043 53.9205 89.6556 53.3336 91.6549 53.3336C94.1888 53.3336 96.4882 54.2591 98.3206 55.7409L73.373 30.793L73.36 30.8037C74.7757 32.6139 75.6549 34.8623 75.6549 37.3337C75.6549 39.3333 75.0677 41.1846 74.1067 42.7855Z" fill="url(#paint0_linear_37_1285)"/>
<path d="M126.65 58.3041L126.644 58.3015L70.6497 2.27034C67.6288 -0.757649 62.3424 -0.755044 59.332 2.26774L3.32682 58.3041C1.82161 59.8181 0.988281 61.8272 0.988281 63.9613C0.988281 66.0981 1.82161 68.1095 3.33203 69.6208L59.3267 125.652C60.8372 127.166 62.8476 128 64.9882 128C67.1288 128 69.1392 127.166 70.6444 125.655L126.644 69.6208C128.155 68.1095 128.988 66.0981 128.988 63.9613C128.988 61.8272 128.155 59.8181 126.65 58.3041Z" fill="url(#paint1_linear_37_1285)"/>
<defs>
<linearGradient id="paint0_linear_37_1285" x1="52.5577" y1="51.606" x2="98.6234" y2="97.6717" gradientUnits="userSpaceOnUse">
<stop stop-color="#010101" stop-opacity="0.1"/>
<stop offset="1" stop-color="#010101" stop-opacity="0"/>
</linearGradient>
<linearGradient id="paint1_linear_37_1285" x1="11.7286" y1="39.1463" x2="118.233" y2="88.81" gradientUnits="userSpaceOnUse">
<stop stop-color="white" stop-opacity="0.2"/>
<stop offset="1" stop-color="white" stop-opacity="0"/>
</linearGradient>
</defs>
</svg>
