<svg viewBox="0 0 130 128" fill="none" xmlns="http://www.w3.org/2000/svg">
<path fill-rule="evenodd" clip-rule="evenodd" d="M65.2129 0C29.7363 0 0.970703 29.373 0.970703 65.632C0.970703 94.6336 19.383 119.206 44.9078 127.892C48.1199 128.493 49.2958 126.464 49.2958 124.721C49.2958 123.149 49.2384 119.035 49.2097 113.549C31.3424 117.52 27.5567 104.748 27.5567 104.748C24.6313 97.1766 20.4154 95.1479 20.4154 95.1479C14.5935 91.062 20.8456 91.1477 20.8456 91.1477C27.2985 91.6048 30.6827 97.9195 30.6827 97.9195C36.4186 107.949 45.7108 105.063 49.3818 103.377C49.9554 99.1481 51.6188 96.2337 53.4543 94.605C39.2006 92.9478 24.2011 87.3189 24.2011 62.1747C24.2011 55.0029 26.6963 49.1455 30.7974 44.5738C30.1378 42.9166 27.9295 36.2305 31.4284 27.2014C31.4284 27.2014 36.8201 25.4299 49.095 33.9161C54.2286 32.4589 59.7064 31.7445 65.1842 31.716C70.6333 31.7445 76.1398 32.4589 81.2735 33.9161C93.5483 25.4299 98.9114 27.2014 98.9114 27.2014C102.41 36.2305 100.202 42.9166 99.5423 44.5738C103.644 49.174 106.139 55.0315 106.139 62.1747C106.139 87.376 91.1105 92.9192 76.7994 94.5478C79.0938 96.5765 81.1587 100.577 81.1587 106.691C81.1587 115.463 81.0727 122.549 81.0727 124.692C81.0727 126.435 82.2199 128.492 85.4894 127.835C111.072 119.178 129.455 94.605 129.455 65.632C129.455 29.373 100.69 0 65.2129 0Z" fill="currentColor"/>
</svg>
