<svg viewBox="0 0 129 128" fill="none" xmlns="http://www.w3.org/2000/svg">
<path d="M128.378 0H0.987793V128H128.378V0Z" fill="#F0DB4F"/>
<path d="M70.3138 99.8283C70.3138 112.285 63.0342 117.971 52.4275 117.971C42.8452 117.971 37.3004 113 34.4565 106.972L44.2097 101.057C46.0865 104.4 47.7927 107.228 51.9158 107.228C55.8397 107.228 58.3426 105.685 58.3426 99.6572V58.771H70.3138V99.8283Z" fill="#323330"/>
<path d="M98.6356 117.971C87.5174 117.971 80.3234 112.657 76.8257 105.686L86.5791 100.028C89.1383 104.228 92.4934 107.343 98.3797 107.343C103.327 107.343 106.512 104.857 106.512 101.4C106.512 97.2856 103.27 95.8291 97.7826 93.4002L94.797 92.1146C86.1526 88.4287 80.4369 83.7715 80.4369 73.9719C80.4369 64.9432 87.2897 58.0859 97.9527 58.0859C105.573 58.0859 111.033 60.7431 114.957 67.7146L105.63 73.7145C103.583 70.0287 101.365 68.572 97.9244 68.572C94.4267 68.572 92.2087 70.8008 92.2087 73.7145C92.2087 77.3147 94.4267 78.7722 99.5736 81.0286L102.559 82.3145C112.739 86.686 118.454 91.1721 118.454 101.229C118.455 112.028 109.981 117.971 98.6356 117.971Z" fill="#323330"/>
</svg>
