<svg viewBox="0 0 64 64" fill="none">
<mask id="mask0_53_1438" style="mask-type:luminance" maskUnits="userSpaceOnUse" x="0" y="0" width="64" height="64">
<path d="M64 0H0V64H64V0Z" fill="white"/>
</mask>
<g mask="url(#mask0_53_1438)">
<path d="M29.9043 0.0172252C29.7667 0.0297373 29.3285 0.0735301 28.9344 0.104811C19.8444 0.92436 11.3298 5.82915 5.93704 13.3678C2.93411 17.5594 1.01349 22.314 0.287781 27.3501C0.0312805 29.1083 0 29.6275 0 32.0109C0 34.3947 0.0312805 34.9139 0.287781 36.6717C2.02698 48.6899 10.5791 58.7872 22.1779 62.5283C24.2549 63.1976 26.4446 63.6544 28.9344 63.9296C29.9043 64.036 34.0957 64.036 35.0656 63.9296C39.3635 63.4541 43.0045 62.3907 46.5955 60.5576C47.1461 60.276 47.2523 60.2011 47.1773 60.1384C47.1272 60.1008 44.7813 56.9541 41.9659 53.1504L36.8485 46.2373L30.436 36.7469C26.9075 31.5293 24.0047 27.2627 23.9797 27.2627C23.9546 27.2563 23.9296 31.4731 23.9171 36.6216C23.8983 45.6368 23.8921 45.9997 23.7795 46.2123C23.6168 46.5189 23.4917 46.644 23.2289 46.7816C23.0287 46.8819 22.8536 46.9005 21.9089 46.9005H20.8266L20.5388 46.7192C20.3511 46.6003 20.2135 46.4437 20.1197 46.2624L19.9883 45.9808L20.0008 33.4373L20.0195 20.8876L20.2135 20.6436C20.3136 20.5122 20.5263 20.3433 20.6765 20.262C20.9329 20.1369 21.033 20.1244 22.1153 20.1244C23.3916 20.1244 23.6043 20.1744 23.9359 20.5373C24.0297 20.6374 27.5019 25.8675 31.656 32.1675C35.8099 38.4672 41.4904 47.0693 44.2808 51.2923L49.3483 58.9685L49.6048 58.7997C51.8757 57.3232 54.2781 55.2211 56.1797 53.0315C60.2275 48.3832 62.8363 42.7152 63.7123 36.6717C63.9688 34.9139 64 34.3947 64 32.0109C64 29.6275 63.9688 29.1083 63.7123 27.3501C61.9731 15.3322 53.4208 5.23483 41.8221 1.49367C39.7763 0.83052 37.5992 0.373824 35.1595 0.0985547C34.5587 0.0359936 30.4235 -0.0328237 29.9043 0.0172252ZM43.0045 19.3736C43.3048 19.5238 43.5488 19.8115 43.6363 20.1118C43.6864 20.2745 43.6989 23.7529 43.6864 31.5917L43.6677 42.8403L41.6845 39.7997L39.6949 36.7595V28.5827C39.6949 23.2962 39.72 20.3246 39.7576 20.1807C39.8576 19.8303 40.0765 19.5551 40.3768 19.3924C40.6333 19.261 40.7272 19.2485 41.7096 19.2485C42.6355 19.2485 42.7981 19.261 43.0045 19.3736Z" fill="currentColor"/>
</g>
</svg>
