<svg viewBox="0 0 145 128" fill="none" xmlns="http://www.w3.org/2000/svg">
<path d="M72.6382 76.7118C79.7678 76.7118 85.5474 70.9568 85.5474 63.8577C85.5474 56.7586 79.7678 51.0037 72.6382 51.0037C65.5087 51.0037 59.729 56.7586 59.729 63.8577C59.729 70.9568 65.5087 76.7118 72.6382 76.7118Z" fill="#00D8FF"/>
<path d="M72.6387 93.304C54.5092 93.304 38.6684 91.1787 26.8135 87.133C19.1246 84.5213 12.5928 81.0389 7.93831 77.07C3.00092 72.8707 0.37793 68.2873 0.37793 63.8575C0.37793 55.3564 9.7384 47.0345 25.4506 41.6061C38.3084 37.1507 55.075 34.667 72.613 34.667C89.8424 34.667 106.378 37.0739 119.158 41.4781C126.641 44.0387 132.942 47.3674 137.416 51.0546C142.277 55.1003 144.848 59.5301 144.848 63.8575C144.848 72.6914 134.382 81.6278 117.512 87.1843C105.58 91.1275 89.6367 93.304 72.6387 93.304ZM72.6387 40.8124C56.0007 40.8124 39.5428 43.2193 27.5079 47.393C13.0557 52.4117 6.57538 59.2741 6.57538 63.8575C6.57538 68.6201 13.5443 76.1226 28.8194 81.3205C40.0314 85.1358 55.2035 87.1586 72.6387 87.1586C88.9938 87.1586 104.243 85.1102 115.584 81.3462C131.45 76.097 138.702 68.5945 138.702 63.8575C138.702 61.4249 136.851 58.5571 133.482 55.7661C129.599 52.5398 123.941 49.5951 117.178 47.265C105.015 43.1169 89.1995 40.8124 72.6387 40.8124Z" fill="#00D8FF"/>
<path d="M43.3487 127.923C40.7257 127.923 38.4113 127.36 36.4569 126.233C29.0765 121.982 26.505 109.743 29.6166 93.4832C32.1624 80.1426 38.3856 64.4719 47.1546 49.339C55.7693 34.4877 66.107 21.4288 76.3161 12.5948C82.2821 7.42246 88.3252 3.63282 93.7769 1.63558C99.7172 -0.540906 104.86 -0.540906 108.615 1.60997C116.304 6.01415 118.85 19.534 115.249 36.8434C112.704 49.1341 106.635 63.9598 98.1486 78.6319C89.0967 94.2514 79.3248 106.849 69.8872 115.069C63.7669 120.395 57.4665 124.287 51.7062 126.31C48.6975 127.385 45.8688 127.923 43.3487 127.923ZM49.8033 50.8753L52.4777 52.4117C44.1716 66.7508 38.0256 82.1399 35.6597 94.6354C32.8053 109.615 35.5569 118.628 39.5171 120.907C40.4943 121.47 41.78 121.777 43.3487 121.777C48.4661 121.777 56.5151 118.551 65.8241 110.46C74.7474 102.701 84.0822 90.6153 92.7997 75.5848C100.977 61.4761 106.789 47.2905 109.206 35.6399C112.575 19.3291 109.669 9.34289 105.529 6.96156C103.42 5.75809 100 5.91173 95.8856 7.42246C91.1282 9.16365 85.7537 12.5692 80.3534 17.255C70.6586 25.6537 60.7581 38.1493 52.4777 52.4373L49.8033 50.8753Z" fill="#00D8FF"/>
<path d="M101.93 128C94.9353 128 86.0634 123.8 76.8058 115.863C66.4681 107.003 55.9505 93.8162 47.1557 78.6833C38.5153 63.832 32.3436 48.3917 29.7463 35.1536C28.2291 27.4207 27.9462 20.3279 28.9234 14.6178C30.0034 8.39566 32.5493 3.96588 36.3295 1.7894C43.9927 -2.64039 57.0305 1.91742 70.2998 13.6704C79.7117 21.9923 89.5864 34.6415 98.0983 49.2879C107.176 64.9074 113.27 79.6307 115.688 91.8702C117.256 99.808 117.514 107.182 116.408 113.174C115.225 119.55 112.55 124.082 108.693 126.31C106.764 127.437 104.476 128 101.93 128ZM52.5046 75.6106C60.8364 89.9498 71.1741 102.932 80.8431 111.202C92.4409 121.138 101.647 123.288 105.633 120.984C109.773 118.603 112.808 108.847 109.67 93.0737C107.356 81.4999 101.518 67.4168 92.7752 52.3862C84.5719 38.2775 75.1343 26.166 66.211 18.2795C53.7132 7.2178 43.5813 4.73405 39.4411 7.11538C37.3324 8.31885 35.7637 11.3659 35.018 15.6677C34.1694 20.6352 34.4265 26.9854 35.8152 33.9757C38.2839 46.5481 44.1984 61.3226 52.5046 75.6106Z" fill="#00D8FF"/>
</svg>
