<svg viewBox="0 0 129 128" fill="none" xmlns="http://www.w3.org/2000/svg">
<path d="M64.7501 128C100.228 128 128.988 99.3462 128.988 64C128.988 28.6538 100.228 0 64.7501 0C29.2725 0 0.512207 28.6538 0.512207 64C0.512207 99.3462 29.2725 128 64.7501 128Z" fill="#CC6699"/>
<path d="M99.311 35.5841C98.5402 32.5121 96.3561 29.9521 93.0157 28.1601C86.4634 24.7041 75.9284 24.5761 66.2927 28.0321C60.5113 30.0801 49.5909 34.6881 41.3684 42.2401C33.146 49.9201 31.8612 56.7041 32.5036 59.3921C33.9168 66.8161 41.7538 72.0641 47.9207 76.4161C49.5909 77.5681 51.1326 78.5921 52.2889 79.6161C48.82 81.4081 39.4413 86.6561 36.8718 92.1601C34.9446 96.5121 35.8439 99.7121 36.6148 101.12C37.3857 102.784 38.6704 104.064 39.9552 104.448C41.2399 104.832 42.6532 104.96 44.0664 104.96C49.5909 104.96 54.9869 102.016 58.3272 97.0241C61.6676 92.0321 61.9245 85.3761 60.3828 81.2801C62.5669 80.7681 64.8795 80.7681 67.449 81.0241C72.4596 81.6641 74.9006 83.5841 76.0569 85.1201C77.3417 86.7841 77.5986 88.4481 77.4701 89.4721C77.2132 91.3921 75.6715 92.5441 74.9006 93.0561C74.2582 93.4401 73.7443 93.8241 73.8728 94.5921C74.1297 95.6161 75.1576 95.4881 75.543 95.4881C76.6993 95.2321 80.8105 93.1841 81.0674 88.5761C81.1959 85.7601 80.0396 82.9441 77.8555 80.6401C75.0291 77.6961 70.7894 76.1601 65.9073 76.2881C62.31 76.2881 59.8689 76.6721 57.9418 77.3121L57.8133 77.1841C56.0147 75.2641 53.5736 73.4721 51.3895 71.6801C46.2505 67.8401 41.4969 64.1281 41.7538 58.6241C42.1393 51.7121 48.9485 44.9281 62.1815 38.4001C73.8728 32.6401 83.38 32.3841 88.3906 34.1761C90.4462 34.9441 91.8594 35.9681 92.3733 37.1201C93.4011 39.2961 93.0157 42.1121 91.217 45.1841C88.2621 50.3041 80.8105 56.7041 69.3761 57.9841C62.4384 58.7521 59.4835 55.6801 59.355 55.5521C58.5842 54.6561 58.0703 54.1441 57.1709 54.6561C56.1431 55.1681 56.657 56.5761 56.914 57.0881C57.4279 58.4961 59.612 60.9281 63.3378 62.2081C66.2927 63.2321 73.8728 63.8721 83.2515 60.2881C94.0435 55.9361 101.495 44.4161 99.311 35.5841ZM54.9869 90.1121C54.8584 90.3681 54.8584 90.6241 54.7299 90.8801C54.6014 91.1361 54.4729 91.3921 54.4729 91.6481C53.959 92.8001 53.1882 93.9521 52.1604 94.9761C49.2054 98.1761 45.2227 99.0721 43.9379 98.3041C43.5525 98.0481 43.424 97.6641 43.2955 97.1521C43.0386 95.6161 43.9379 92.5441 46.6359 89.8561C49.8478 86.5281 54.3445 84.0961 55.3723 83.5841C55.7577 85.8881 55.6292 88.0641 54.9869 90.1121Z" fill="white"/>
</svg>
