<svg viewBox="0 0 257 170" fill="none" xmlns="http://www.w3.org/2000/svg">
<path d="M128.108 0.368652C110.583 0.368652 95.5169 5.06157 83.6906 15.1192C71.9494 25.1045 64.2685 39.6408 60.0076 57.7592C59.0776 61.7134 61.1056 65.7663 64.8424 67.4219C68.5792 69.0775 72.9744 67.8704 75.3212 64.5439C80.7295 56.8782 86.1295 52.2721 91.3179 49.9083C96.3428 47.619 101.759 47.1552 107.963 48.804C114.224 50.4679 119.07 55.3409 126.679 63.5515L126.925 63.8169C132.661 70.0066 139.657 77.5575 149.227 83.4159C159.157 89.495 171.514 93.5795 187.892 93.5795C205.415 93.5795 220.482 88.8864 232.309 78.8289C244.049 68.8437 251.73 54.3073 255.992 36.189C256.921 32.2348 254.893 28.1818 251.156 26.5262C247.42 24.8706 243.024 26.0776 240.677 29.4041C235.269 37.0699 229.87 41.6759 224.681 44.0399C219.655 46.3291 214.239 46.793 208.035 45.1442C201.775 43.4803 196.927 38.6072 189.32 30.3965L189.074 30.1311C183.338 23.9414 176.342 16.3904 166.771 10.5322C156.841 4.45316 144.484 0.368652 128.108 0.368652Z" fill="#3FBDF8"/>
<path d="M68.3246 76.6321C50.8001 76.6321 35.7338 81.325 23.9075 91.3826C12.1662 101.368 4.48531 115.904 0.224383 134.023C-0.705538 137.977 1.32234 142.029 5.05912 143.685C8.79591 145.341 13.1912 144.134 15.538 140.807C20.9463 133.142 26.3463 128.536 31.5348 126.172C36.5596 123.882 41.9758 123.419 48.1799 125.067C54.4408 126.731 59.2873 131.605 66.8961 139.816L67.1419 140.08C72.8774 146.269 79.8744 153.821 89.444 159.68C99.3741 165.759 111.731 169.843 128.108 169.843C145.632 169.843 160.698 165.15 172.526 155.092C184.265 145.107 191.947 130.571 196.208 112.452C197.138 108.498 195.11 104.445 191.373 102.789C187.637 101.134 183.24 102.341 180.894 105.667C175.486 113.333 170.086 117.939 164.897 120.303C159.873 122.592 154.456 123.056 148.252 121.408C141.992 119.744 137.145 114.87 129.536 106.66L129.29 106.395C123.555 100.205 116.558 92.6539 106.988 86.7955C97.0583 80.7166 84.7013 76.6321 68.3246 76.6321Z" fill="#3FBDF8"/>
</svg>

