<svg fill="currentColor" version="1.1" id="Layer_1" xmlns="http://www.w3.org/2000/svg" xmlns:xlink="http://www.w3.org/1999/xlink" viewBox="0 0 512 512" xml:space="preserve"><g id="SVGRepo_bgCarrier" stroke-width="0"></g><g id="SVGRepo_tracerCarrier" stroke-linecap="round" stroke-linejoin="round"></g><g id="SVGRepo_iconCarrier"> <g> <g> </g> </g> <g> <g> <path d="M512,256l-68.323-50.303l34.063-77.755l-84.371-9.31l-9.309-84.371l-77.756,34.063L256,0l-50.303,68.323l-77.755-34.062 l-9.31,84.371l-84.371,9.309l34.063,77.756L0,256l68.323,50.303l-34.062,77.755l84.371,9.31l9.309,84.371l77.756-34.063L256,512 l50.303-68.323l77.755,34.063l9.31-84.371l84.371-9.309l-34.063-77.756L512,256z M256,384.781 c-71.01,0-128.781-57.771-128.781-128.781S184.99,127.219,256,127.219S384.781,184.99,384.781,256S327.01,384.781,256,384.781z"></path> </g> </g> </g></svg>

