<svg viewBox="0 0 132 73" fill="none" xmlns="http://www.w3.org/2000/svg">
  <defs>
    <mask id="pathMask">
      <rect width="132" height="73" fill="white"/>
      <path d="M50.6 42.0305C55.4602 42.0305 59.4 38.0689 59.4 33.182C59.4 28.2951 55.4602 24.3335 50.6 24.3335C45.7399 24.3335 41.8 28.2951 41.8 33.182C41.8 38.0689 45.7399 42.0305 50.6 42.0305Z" fill="black"/>
      <path d="M74.8 42.0305C79.6601 42.0305 83.6 38.0689 83.6 33.182C83.6 28.2951 79.6601 24.3335 74.8 24.3335C69.9399 24.3335 66 28.2951 66 33.182C66 38.0689 69.9399 42.0305 74.8 42.0305Z" fill="black"/>
      <path d="M99 42.0305C103.86 42.0305 107.8 38.0689 107.8 33.182C107.8 28.2951 103.86 24.3335 99 24.3335C94.1398 24.3335 90.2 28.2951 90.2 33.182C90.2 38.0689 94.1398 42.0305 99 42.0305Z" fill="black"/>
    </mask>
  </defs>
  <path fill-rule="evenodd" clip-rule="evenodd" d="M99 66.3636H50.6C44.3558 66.3712 38.239 64.5882 32.967 61.2238C31.8704 62.7821 30.4243 64.0588 28.7457 64.9507C27.0672 65.8426 25.2034 66.3246 23.3052 66.3576C21.4069 66.3906 19.5277 65.9737 17.8195 65.1407C16.1112 64.3077 14.6221 63.082 13.4725 61.5628C12.323 60.0436 11.5453 58.2735 11.2025 56.3959C10.8597 54.5184 10.9614 52.586 11.4993 50.7553C12.0372 48.9246 12.9963 47.2469 14.2989 45.8581C15.6014 44.4694 17.2109 43.4085 18.997 42.7614C17.5124 37.8045 17.2016 32.5671 18.0893 27.4678C18.977 22.3686 21.0386 17.5488 24.1095 13.3937C27.1803 9.23854 31.1753 5.86331 35.7749 3.53769C40.3746 1.21208 45.4516 0.000578672 50.6 0H99C107.752 0 116.146 3.49593 122.335 9.71873C128.523 15.9415 132 24.3815 132 33.1818C132 41.9822 128.523 50.4221 122.335 56.6449C116.146 62.8677 107.752 66.3636 99 66.3636ZM5.5 73C4.41221 73 3.34883 72.6757 2.44436 72.068C1.53989 71.4603 0.834949 70.5966 0.418667 69.5861C0.0023846 68.5755 -0.106536 67.4636 0.105683 66.3908C0.317902 65.318 0.841726 64.3326 1.61092 63.5592C2.3801 62.7858 3.36011 62.259 4.42701 62.0457C5.4939 61.8323 6.59976 61.9418 7.60476 62.3604C8.60975 62.7789 9.46874 63.4878 10.0731 64.3972C10.6774 65.3067 11 66.3759 11 67.4697C11 68.9364 10.4205 70.3431 9.38909 71.3802C8.35764 72.4174 6.95869 73 5.5 73Z" fill="currentColor" mask="url(#pathMask)"/>
</svg>
